<?xml version="1.0" standalone="no"?>
<!DOCTYPE svg PUBLIC "-//W3C//DTD SVG 20010904//EN"
 "http://www.w3.org/TR/2001/REC-SVG-20010904/DTD/svg10.dtd">
<svg version="1.0" xmlns="http://www.w3.org/2000/svg"
 width="477.000000pt" height="477.000000pt" viewBox="0 0 477.000000 477.000000"
 preserveAspectRatio="xMidYMid meet">
<metadata>
Created by potrace 1.15, written by Peter Selinger 2001-2017
</metadata>
<g transform="translate(0.000000,477.000000) scale(0.100000,-0.100000)"
fill="#000000" stroke="none">
<path d="M2324 4149 c-50 -14 -126 -70 -158 -116 -37 -54 -49 -149 -21 -176
41 -41 105 -7 105 56 0 38 62 101 112 115 101 28 202 -51 202 -158 0 -85 -50
-138 -152 -164 -27 -7 -52 -21 -63 -36 -21 -28 -39 -110 -39 -176 0 -37 -3
-44 -20 -44 -41 0 -125 -41 -293 -144 -96 -58 -179 -106 -186 -106 -6 0 -25 9
-43 20 -25 15 -51 20 -104 20 -68 0 -90 -7 -400 -126 -181 -70 -332 -129 -335
-133 -6 -6 183 -686 193 -696 3 -3 105 33 227 80 122 47 224 85 226 85 3 0 5
-319 5 -710 l0 -710 790 0 790 0 0 710 c0 391 3 710 8 710 4 0 107 -39 230
-86 123 -47 225 -84 226 -82 13 16 196 692 189 698 -4 5 -154 65 -334 134
-370 143 -400 149 -488 100 l-46 -26 -200 120 c-134 82 -217 125 -251 133 -49
11 -52 14 -58 48 -3 20 -6 51 -6 69 0 27 4 32 23 32 12 0 40 9 63 19 134 61
202 209 158 347 -25 81 -108 165 -184 188 -59 17 -118 19 -166 5z m177 -839
c69 -36 309 -184 309 -190 0 -7 -376 -221 -412 -235 -12 -5 -88 32 -238 115
-121 67 -220 124 -220 126 0 1 72 46 159 99 135 81 169 97 218 103 65 8 149 0
184 -18z"/>
<path d="M1615 3891 c-47 -12 -107 -46 -137 -78 -84 -89 -91 -253 -10 -253 31
0 61 41 59 82 -2 65 73 138 140 138 76 0 134 -46 154 -121 11 -43 10 -50 -12
-95 -19 -40 -34 -54 -78 -76 -29 -15 -59 -32 -67 -39 -21 -17 -35 -81 -28
-130 l6 -44 54 3 55 4 -6 42 c-6 41 -6 42 30 55 53 19 114 78 141 136 61 131
0 296 -131 355 -48 22 -128 32 -170 21z"/>
<path d="M3064 3866 c-92 -43 -163 -156 -133 -213 28 -52 92 -37 109 26 12 44
31 64 84 86 97 41 206 -37 206 -146 0 -76 -76 -149 -155 -149 -60 0 -91 -23
-114 -85 -29 -76 -28 -105 3 -105 13 0 38 -3 55 -6 31 -6 31 -6 31 33 l0 40
51 7 c144 19 242 128 243 267 0 113 -64 211 -168 254 -55 23 -152 19 -212 -9z"/>
<path d="M3746 2563 c-49 -175 -92 -321 -95 -324 -3 -4 -102 31 -220 77 -118
46 -218 84 -223 84 -4 0 -8 -317 -8 -705 l0 -705 -257 -1 -258 -1 375 -64
c206 -35 377 -59 380 -54 3 4 54 303 114 663 l109 654 200 -118 c110 -65 201
-118 202 -116 12 18 285 606 285 614 0 8 -498 313 -512 313 -2 0 -43 -143 -92
-317z"/>
<path d="M663 2732 c-134 -75 -243 -141 -243 -146 0 -18 273 -616 281 -616 5
0 95 49 201 109 106 60 195 108 197 106 2 -2 47 -299 100 -659 54 -361 99
-658 102 -660 2 -3 193 23 423 57 l419 62 -296 3 -297 2 0 705 c0 413 -4 705
-9 705 -5 0 -107 -38 -227 -85 -119 -47 -218 -84 -219 -82 -1 1 -42 145 -91
320 -48 174 -91 317 -94 317 -3 0 -114 -62 -247 -138z"/>
</g>
</svg>
